<?xml version="1.0" encoding="us-ascii" standalone="no"?><svg xmlns="http://www.w3.org/2000/svg" xmlns:xlink="http://www.w3.org/1999/xlink" contentStyleType="text/css" height="745px" preserveAspectRatio="none" style="width:568px;height:745px;background:#FFFFFF;" version="1.1" viewBox="0 0 568 745" width="568px" zoomAndPan="magnify"><defs/><g><!--cluster UserCluster--><g id="cluster_UserCluster"><path d="M72.5607,114.2987 C75.6614,109.7505 79.3595,110.7871 81.9464,114.8582 C84.5527,107.8944 90.5491,107.8028 94.7967,113.1442 C97.411,108.6324 101.7795,107.4281 105.0552,112.4312 C108.9897,106.6776 113.3214,107.6651 116.5544,113.149 C119.4488,107.8221 123.5573,108.0513 127.1927,112.3281 C130.0066,105.7146 136.5108,105.4983 140.2254,111.3894 C143.8185,106.2483 147.5804,107.5167 150.6608,111.9483 C154.2376,106.6022 158.5823,106.8184 161.6092,112.4945 C165.6196,107.2359 170.3268,107.0679 174.1919,112.663 C177.5554,109.0266 182.0875,109.2708 184.0581,114.2568 C187.6705,108.113 193.6768,109.1784 197.0619,114.5142 C200.9281,109.6129 205.3208,111.1214 207.8527,115.9882 C213.8878,119.7768 212.7821,125.8117 207.3295,129.1434 C212.9017,132.29 213.9785,138.6507 208.024,142.4011 C214.9869,145.7872 215.8266,151.9126 209.709,156.8265 C215.7781,160.9475 214.8632,166.334 208.3514,169.0587 C215.812,173.1086 214.5325,178.1368 208.7876,182.6117 C214.0404,187.9018 213.8066,191.9077 207.1053,195.6561 C204.5292,202.3368 200.389,202.4096 195.8062,197.6356 C192.1593,203.034 188.0836,203.8438 184.228,197.8477 C181.3588,204.0389 177.9558,203.7254 173.678,199.2396 C170.9337,206.6472 166.8782,205.7677 161.6958,201.8101 C158.0038,206.451 154.3621,205.7228 151.3891,201.0174 C149.6813,207.2531 145.3066,207.8618 140.6901,204.1438 C135.2464,210.1051 130.0861,207.9046 127.901,200.9236 C123.8596,206.4393 120.4627,204.9831 117.0996,200.2114 C113.6151,205.2447 109.1911,206.0852 105.5927,200.3328 C101.4331,205.3074 95.8974,204.4281 93.8117,198.1596 C89.9718,203.4917 84.6542,203.6253 82.0585,196.9425 C78.7648,201.2604 75.4173,202.4207 71.6818,197.4352 C63.6839,193.692 64.276,187.8827 70.7728,183.2131 C64.8097,179.7218 63.3891,173.8134 70.429,169.9842 C62.6549,166.5568 62.5464,160.1153 68.71,155.0804 C62.7198,150.2059 64.8503,145.8024 70.6781,142.8258 C65.1205,137.9278 65.4561,132.8597 71.4214,128.5622 C65.4496,124.1254 65.5365,117.6975 72.5607,114.2987 " fill="none" style="stroke:#181818;stroke-width:1.0;"/><text fill="#000000" font-family="sans-serif" font-size="14" font-weight="bold" lengthAdjust="spacing" textLength="84" x="96.5" y="132.5352">UserCluster</text></g><!--cluster ThreadCluster--><g id="cluster_ThreadCluster"><path d="M320.0308,114.9522 C323.2552,110.3558 328.3344,110.6941 331.0029,115.5944 C333.4489,110.618 337.3939,108.9818 341.5262,113.7787 C344.6136,107.6391 350.5933,108.1582 354.0446,113.3776 C357.177,107.9733 360.8203,108.9977 364.3128,112.9838 C366.9698,106.8024 372.5076,107.1955 376.3164,111.6887 C379.7208,106.5696 384.9602,107.6021 387.594,112.5518 C390.1413,107.2532 394.4332,107.6074 397.1944,112.3473 C400.8881,106.1893 405.9612,106.0685 409.4473,112.5486 C412.3688,108.4675 415.1829,106.957 418.796,111.8261 C422.1942,105.0281 428.4361,106.4991 431.5289,112.1387 C435.2902,107.1634 439.7186,107.1404 442.6156,113.0214 C445.2009,108.3011 449.2241,109.1931 451.681,113.1554 C456.4986,107.7834 460.3175,109.303 463.4933,114.9201 C467.5206,110.5464 471.8864,110.4003 474.9055,116.0661 C481.1835,119.3712 483.2683,124.3221 476.5797,129.2711 C482.8849,133.4241 482.9132,138.5923 477.2356,143.3053 C484.7316,145.3391 484.6922,150.4295 480.3938,155.5142 C486.9559,161.1686 483.9753,167.1768 477.1919,169.8505 C484.1356,174.9327 483.7035,179.1244 476.3107,183.2648 C481.2125,188.2466 482.1446,192.6982 474.7892,196.2431 C472.0171,201.9075 466.9772,201.7 463.6629,196.815 C461.7572,202.6323 457.3312,204.46 452.9051,199.2808 C449.6459,204.7439 445.7083,205.0547 442.1867,199.5369 C439.2141,205.8144 433.2026,204.7059 429.9245,199.8741 C427.7297,205.2977 423.2487,207.1401 418.5969,202.6941 C415.465,208.7942 411.5924,208.7622 407.7721,203.3409 C405.3633,208.8034 400.1392,209.2946 397.2383,203.8147 C393.0902,209.2179 388.9897,208.8335 385.6796,202.9562 C381.8311,207.5163 378.3672,207.9803 375.0816,202.3697 C371.4442,207.1767 367.657,207.105 364.8818,201.523 C360.9592,205.3107 356.803,204.8962 354.2128,199.9039 C350.1485,206.3212 345.2429,206.085 341.6248,199.4728 C337.2958,203.2259 333.4219,201.74 331.7192,196.5604 C327.8455,202.5785 323.1012,202.6735 319.7345,196.0787 C313.8786,192.9136 312.9452,186.9134 318.4249,182.6435 C312.0158,180.5856 310.5148,174.7687 316.2277,170.5148 C309.2631,166.5285 307.7248,161.1794 314.4818,155.5881 C308.9579,150.4338 310.2684,145.1308 316.9993,142.2979 C310.748,137.7516 311.7309,130.8984 319.1883,128.5319 C313.35,124.6934 313.6347,118.0317 320.0308,114.9522 " fill="none" style="stroke:#181818;stroke-width:1.0;"/><text fill="#000000" font-family="sans-serif" font-size="14" font-weight="bold" lengthAdjust="spacing" textLength="102" x="345.5" y="132.5352">ThreadCluster</text></g><!--cluster PostCluster--><g id="cluster_PostCluster"><path d="M58.1067,454.578 C61.0763,448.2601 66.7356,448.8089 70.0218,454.2574 C73.158,449.8226 76.1286,448.3694 80.0241,453.4602 C83.1935,447.2017 87.4331,447.6887 91.3573,452.7012 C95.6367,448.2181 99.4223,448.1251 102.8694,453.6579 C105.6759,447.3844 110.7499,446.8766 114.3213,452.9483 C117.5837,447.661 121.8068,446.9694 126.1517,451.6655 C129.3998,445.5806 135.1171,445.9334 137.8407,452.1634 C140.9925,447.2047 144.4287,447.2984 147.4149,452.3222 C151.2556,446.668 156.3677,448.4058 159.0911,453.5323 C162.1733,447.3986 167.3619,448.2336 170.7906,453.166 C174.117,449.1474 178.7911,449.5981 181.3045,454.1619 C184.7966,448.747 189.3804,449.3051 192.6548,454.3971 C201.4432,457.4721 201.8364,463.3246 196.0578,469.6496 C203.1352,472.6765 203.4976,477.9444 197.2178,482.2055 C204.0266,486.0562 206.3718,491.1804 199.145,496.875 C203.9798,501.4911 204.4779,505.7715 197.8546,509.1867 C203.3746,514.7718 203.0692,519.3692 195.1363,522.1285 C202.2718,527.5343 202.237,533.7167 193.6816,537.6521 C189.8839,544.4536 183.3191,543.3619 180.3894,536.7894 C179.02,541.3871 175.355,543.9465 171.1425,539.7939 C167.6787,546.8099 162.1653,546.3215 158.301,540.1849 C154.934,545.9405 151.4688,545.7184 147.1872,541.1715 C144.4811,546.264 141.1133,546.3766 137.1963,542.5241 C134.3407,548.8189 130.2077,550.1616 125.2833,544.6034 C120.2812,549.6648 116.4087,548.3752 113.7552,542.195 C110.7042,547.1366 107.281,547.2525 104.0717,542.3507 C100.3559,547.5263 94.4795,547.9111 91.7236,541.3415 C87.0604,544.9904 83.6736,544.0065 81.8915,538.3103 C77.3743,543.2076 72.8017,544.0035 69.2606,537.2519 C65.2681,542.297 60.6479,541.5011 57.6613,536.1316 C51.0012,532.0982 51.0255,527.4027 57.7087,523.4191 C50.0758,521.3129 47.4893,515.093 53.7967,509.1618 C46.0268,505.6978 45.6493,500.8624 52.2508,495.7429 C45.8973,490.1052 46.6411,485.1345 54.4305,481.6905 C48.3156,477.302 48.8174,470.964 56.3563,468.5813 C51.0297,464.3301 50.6813,457.2352 58.1067,454.578 " fill="none" style="stroke:#181818;stroke-width:1.0;"/><text fill="#000000" font-family="sans-serif" font-size="14" font-weight="bold" lengthAdjust="spacing" textLength="84" x="82.5" y="472.5052">PostCluster</text></g><!--cluster UserDB--><g id="cluster_UserDB"><path d="M203.5,270.49 C203.5,260.49 276,260.49 276,260.49 C276,260.49 348.5,260.49 348.5,270.49 L348.5,378.97 C348.5,388.97 276,388.97 276,388.97 C276,388.97 203.5,388.97 203.5,378.97 L203.5,270.49 " fill="none" style="stroke:#181818;stroke-width:1.0;"/><path d="M203.5,270.49 C203.5,280.49 276,280.49 276,280.49 C276,280.49 348.5,280.49 348.5,270.49 " fill="none" style="stroke:#181818;stroke-width:1.0;"/><text fill="#000000" font-family="sans-serif" font-size="14" font-weight="bold" lengthAdjust="spacing" textLength="52" x="250" y="296.0252">UserDB</text></g><!--cluster ThreadDB--><g id="cluster_ThreadDB"><path d="M388.5,270.49 C388.5,260.49 470,260.49 470,260.49 C470,260.49 551.5,260.49 551.5,270.49 L551.5,378.97 C551.5,388.97 470,388.97 470,388.97 C470,388.97 388.5,388.97 388.5,378.97 L388.5,270.49 " fill="none" style="stroke:#181818;stroke-width:1.0;"/><path d="M388.5,270.49 C388.5,280.49 470,280.49 470,280.49 C470,280.49 551.5,280.49 551.5,270.49 " fill="none" style="stroke:#181818;stroke-width:1.0;"/><text fill="#000000" font-family="sans-serif" font-size="14" font-weight="bold" lengthAdjust="spacing" textLength="70" x="435" y="296.0252">ThreadDB</text></g><!--cluster PostDB--><g id="cluster_PostDB"><path d="M116.5,610.46 C116.5,600.46 188,600.46 188,600.46 C188,600.46 259.5,600.46 259.5,610.46 L259.5,718.95 C259.5,728.95 188,728.95 188,728.95 C188,728.95 116.5,728.95 116.5,718.95 L116.5,610.46 " fill="none" style="stroke:#181818;stroke-width:1.0;"/><path d="M116.5,610.46 C116.5,620.46 188,620.46 188,620.46 C188,620.46 259.5,620.46 259.5,610.46 " fill="none" style="stroke:#181818;stroke-width:1.0;"/><text fill="#000000" font-family="sans-serif" font-size="14" font-weight="bold" lengthAdjust="spacing" textLength="52" x="162" y="635.9952">PostDB</text></g><!--entity UserService--><g id="elem_UserService"><rect fill="#F1F1F1" height="46.4883" rx="2.5" ry="2.5" style="stroke:#181818;stroke-width:0.5;" width="119" x="79" y="141"/><rect fill="#F1F1F1" height="10" style="stroke:#181818;stroke-width:0.5;" width="15" x="178" y="146"/><rect fill="#F1F1F1" height="2" style="stroke:#181818;stroke-width:0.5;" width="4" x="176" y="148"/><rect fill="#F1F1F1" height="2" style="stroke:#181818;stroke-width:0.5;" width="4" x="176" y="152"/><text fill="#000000" font-family="sans-serif" font-size="14" lengthAdjust="spacing" textLength="79" x="94" y="174.5352">UserService</text></g><!--entity ThreadService--><g id="elem_ThreadService"><rect fill="#F1F1F1" height="46.4883" rx="2.5" ry="2.5" style="stroke:#181818;stroke-width:0.5;" width="137" x="328" y="141"/><rect fill="#F1F1F1" height="10" style="stroke:#181818;stroke-width:0.5;" width="15" x="445" y="146"/><rect fill="#F1F1F1" height="2" style="stroke:#181818;stroke-width:0.5;" width="4" x="443" y="148"/><rect fill="#F1F1F1" height="2" style="stroke:#181818;stroke-width:0.5;" width="4" x="443" y="152"/><text fill="#000000" font-family="sans-serif" font-size="14" lengthAdjust="spacing" textLength="97" x="343" y="174.5352">ThreadService</text></g><!--entity PostService--><g id="elem_PostService"><rect fill="#F1F1F1" height="46.4883" rx="2.5" ry="2.5" style="stroke:#181818;stroke-width:0.5;" width="117" x="66" y="480.97"/><rect fill="#F1F1F1" height="10" style="stroke:#181818;stroke-width:0.5;" width="15" x="163" y="485.97"/><rect fill="#F1F1F1" height="2" style="stroke:#181818;stroke-width:0.5;" width="4" x="161" y="487.97"/><rect fill="#F1F1F1" height="2" style="stroke:#181818;stroke-width:0.5;" width="4" x="161" y="491.97"/><text fill="#000000" font-family="sans-serif" font-size="14" lengthAdjust="spacing" textLength="77" x="81" y="514.5052">PostService</text></g><!--entity Users--><g id="elem_Users"><rect fill="#F1F1F1" height="46.4883" rx="2.5" ry="2.5" style="stroke:#181818;stroke-width:0.5;" width="78" x="246.5" y="318.49"/><rect fill="#F1F1F1" height="10" style="stroke:#181818;stroke-width:0.5;" width="15" x="304.5" y="323.49"/><rect fill="#F1F1F1" height="2" style="stroke:#181818;stroke-width:0.5;" width="4" x="302.5" y="325.49"/><rect fill="#F1F1F1" height="2" style="stroke:#181818;stroke-width:0.5;" width="4" x="302.5" y="329.49"/><text fill="#000000" font-family="sans-serif" font-size="14" lengthAdjust="spacing" textLength="38" x="261.5" y="352.0252">Users</text></g><!--entity Threads--><g id="elem_Threads"><rect fill="#F1F1F1" height="46.4883" rx="2.5" ry="2.5" style="stroke:#181818;stroke-width:0.5;" width="96" x="431.5" y="318.49"/><rect fill="#F1F1F1" height="10" style="stroke:#181818;stroke-width:0.5;" width="15" x="507.5" y="323.49"/><rect fill="#F1F1F1" height="2" style="stroke:#181818;stroke-width:0.5;" width="4" x="505.5" y="325.49"/><rect fill="#F1F1F1" height="2" style="stroke:#181818;stroke-width:0.5;" width="4" x="505.5" y="329.49"/><text fill="#000000" font-family="sans-serif" font-size="14" lengthAdjust="spacing" textLength="56" x="446.5" y="352.0252">Threads</text></g><!--entity Posts--><g id="elem_Posts"><rect fill="#F1F1F1" height="46.4883" rx="2.5" ry="2.5" style="stroke:#181818;stroke-width:0.5;" width="76" x="159.5" y="658.46"/><rect fill="#F1F1F1" height="10" style="stroke:#181818;stroke-width:0.5;" width="15" x="215.5" y="663.46"/><rect fill="#F1F1F1" height="2" style="stroke:#181818;stroke-width:0.5;" width="4" x="213.5" y="665.46"/><rect fill="#F1F1F1" height="2" style="stroke:#181818;stroke-width:0.5;" width="4" x="213.5" y="669.46"/><text fill="#000000" font-family="sans-serif" font-size="14" lengthAdjust="spacing" textLength="36" x="174.5" y="691.9952">Posts</text></g><!--entity DeletePosts--><g id="elem_DeletePosts"><ellipse cx="129.5" cy="341.73" fill="#F1F1F1" rx="8" ry="8" style="stroke:#181818;stroke-width:0.5;"/><text fill="#000000" font-family="sans-serif" font-size="14" lengthAdjust="spacing" textLength="79" x="90" y="372.2652">DeletePosts</text></g><!--entity Register--><g id="elem_Register"><ellipse cx="89.5" cy="14" fill="#F1F1F1" rx="8" ry="8" style="stroke:#181818;stroke-width:0.5;"/><text fill="#000000" font-family="sans-serif" font-size="14" lengthAdjust="spacing" textLength="56" x="61.5" y="44.5352">Register</text></g><!--entity Login--><g id="elem_Login"><ellipse cx="187.5" cy="14" fill="#F1F1F1" rx="8" ry="8" style="stroke:#181818;stroke-width:0.5;"/><text fill="#000000" font-family="sans-serif" font-size="14" lengthAdjust="spacing" textLength="38" x="168.5" y="44.5352">Login</text></g><!--entity Post--><g id="elem_Post"><ellipse cx="20.5" cy="341.73" fill="#F1F1F1" rx="8" ry="8" style="stroke:#181818;stroke-width:0.5;"/><text fill="#000000" font-family="sans-serif" font-size="14" lengthAdjust="spacing" textLength="29" x="6" y="372.2652">Post</text></g><!--entity ListThreads--><g id="elem_ListThreads"><ellipse cx="396.5" cy="14" fill="#F1F1F1" rx="8" ry="8" style="stroke:#181818;stroke-width:0.5;"/><text fill="#000000" font-family="sans-serif" font-size="14" lengthAdjust="spacing" textLength="79" x="357" y="44.5352">ListThreads</text></g><!--link DeletePosts to PostService--><g id="link_DeletePosts_PostService"><path d="M129.26,350.47 C128.53,373.82 126.34,444.22 125.2,480.72 " fill="none" id="DeletePosts-PostService" style="stroke:#181818;stroke-width:1.0;"/></g><!--link UserService to DeletePosts--><g id="link_UserService_DeletePosts"><path d="M136.66,187.93 C135.92,197.64 135.1,209.11 134.5,219.49 C132.27,258.35 130.65,304.27 129.93,326.82 " fill="none" id="UserService-to-DeletePosts" style="stroke:#181818;stroke-width:1.0;"/><polygon fill="#181818" points="129.74,331.78,134.0207,322.9101,129.8971,326.7825,126.0247,322.6588,129.74,331.78" style="stroke:#181818;stroke-width:1.0;"/><text fill="#000000" font-family="sans-serif" font-size="13" lengthAdjust="spacing" textLength="30" x="135.5" y="233.0584">REST</text></g><!--link Register to UserService--><g id="link_Register_UserService"><path d="M91.8,22.92 C95.83,36.63 104.46,65.69 112.5,90 C118.13,107.04 124.93,126.14 130.16,140.56 " fill="none" id="Register-UserService" style="stroke:#181818;stroke-width:1.0;"/><text fill="#000000" font-family="sans-serif" font-size="13" lengthAdjust="spacing" textLength="30" x="113.5" y="86.5684">REST</text></g><!--link Login to UserService--><g id="link_Login_UserService"><path d="M184.87,22.97 C177.61,44.92 157.14,106.86 145.98,140.62 " fill="none" id="Login-UserService" style="stroke:#181818;stroke-width:1.0;"/><text fill="#000000" font-family="sans-serif" font-size="13" lengthAdjust="spacing" textLength="30" x="167.5" y="86.5684">REST</text></g><!--link Post to PostService--><g id="link_Post_PostService"><path d="M25.52,350.47 C40.65,373.82 86.27,444.22 109.92,480.72 " fill="none" id="Post-PostService" style="stroke:#181818;stroke-width:1.0;"/><text fill="#000000" font-family="sans-serif" font-size="13" lengthAdjust="spacing" textLength="30" x="76.5" y="426.5384">REST</text></g><!--link ListThreads to ThreadService--><g id="link_ListThreads_ThreadService"><path d="M396.5,22.97 C396.5,44.92 396.5,106.86 396.5,140.62 " fill="none" id="ListThreads-ThreadService" style="stroke:#181818;stroke-width:1.0;"/><text fill="#000000" font-family="sans-serif" font-size="13" lengthAdjust="spacing" textLength="30" x="397.5" y="86.5684">REST</text></g><!--link UserService to UserDB--><g id="link_UserService_UserDB"><path d="M158.61,187.88 C170.88,202.91 185.81,223.65 194.5,244.49 C196.5238,249.3438 198.3067,254.4333 199.8775,259.6303 C200.6629,262.2288 201.3953,264.8542 202.0782,267.4904 C202.4197,268.8086 202.7488,270.1294 203.066,271.4509 C203.1453,271.7813 203.2238,272.1117 203.3016,272.4422 C203.3405,272.6074 203.3792,272.7726 203.4178,272.9378 " fill="none" id="UserService-to-UserDB" style="stroke:#181818;stroke-width:1.0;stroke-dasharray:7.0,7.0;"/><polygon fill="#181818" points="203.4178,272.9378,205.2689,263.2645,202.282,268.0685,197.478,265.0817,203.4178,272.9378" style="stroke:#181818;stroke-width:1.0;"/><text fill="#000000" font-family="sans-serif" font-size="13" lengthAdjust="spacing" textLength="29" x="190.5" y="233.0584">uses</text></g><!--link ThreadService to ThreadDB--><g id="link_ThreadService_ThreadDB"><path d="M396.5,187.82 C396.5,199.485 396.5,214.6694 396.5,230.9344 C396.5,239.0669 396.5,247.4695 396.5,255.8375 C396.5,256.8835 396.5,257.929 396.5,258.9733 C396.5,259.2343 396.5,259.4954 396.5,259.7563 " fill="none" id="ThreadService-to-ThreadDB" style="stroke:#181818;stroke-width:1.0;stroke-dasharray:7.0,7.0;"/><polygon fill="#181818" points="396.5,259.7563,400.5,250.7563,396.5,254.7563,392.5,250.7563,396.5,259.7563" style="stroke:#181818;stroke-width:1.0;"/><text fill="#000000" font-family="sans-serif" font-size="13" lengthAdjust="spacing" textLength="29" x="397.5" y="233.0584">uses</text></g><!--link PostService to PostDB--><g id="link_PostService_PostDB"><path d="M124.5,527.8 C124.5,539.465 124.5,554.6488 124.5,570.913 C124.5,579.0451 124.5,587.4473 124.5,595.8149 C124.5,596.8608 124.5,597.9062 124.5,598.9505 C124.5,599.2115 124.5,599.4725 124.5,599.7335 " fill="none" id="PostService-to-PostDB" style="stroke:#181818;stroke-width:1.0;stroke-dasharray:7.0,7.0;"/><polygon fill="#181818" points="124.5,599.7335,128.5,590.7335,124.5,594.7335,120.5,590.7335,124.5,599.7335" style="stroke:#181818;stroke-width:1.0;"/><text fill="#000000" font-family="sans-serif" font-size="13" lengthAdjust="spacing" textLength="29" x="125.5" y="573.0284">uses</text></g><!--SRC=[VP2z3e8m4CVtUug-W3m00uFYvc009-DGwGL924tQeeFntQMVj3Mnu_Lt_u_h9xumSf4e3jCY5Gho1hA-gnwrA9vZZpVu0FG6x1u2ASjGE_o5prog3DMZ6AnnGeLwAicEyTUy8n42IGe7L2HQAabpR3k01eVH-3YHPD519pwCypz0AuR_EAaNM2rirn0sw-xZCAhedKeqXwttyKsbwHq0kxyXJZ-5T9ODCSKDa9wdq96AodcMP94e8GiO8E_hiRXkWAolG-0B]--></g></svg>