<?xml version="1.0" encoding="us-ascii" standalone="no"?><svg xmlns="http://www.w3.org/2000/svg" xmlns:xlink="http://www.w3.org/1999/xlink" contentStyleType="text/css" height="513px" preserveAspectRatio="none" style="width:461px;height:513px;background:#FFFFFF;" version="1.1" viewBox="0 0 461 513" width="461px" zoomAndPan="magnify"><defs/><g><!--cluster MonolithCluster--><g id="cluster_MonolithCluster"><path d="M95.5389,114.2343 C99.0453,108.3074 103.7323,108.3554 107.8636,113.5413 C111.6748,108.8416 115.1203,108.4758 118.7382,113.752 C123.0327,107.6321 127.9994,108.618 131.3771,114.7014 C133.7326,109.8384 136.6722,107.9156 141.3321,112.1911 C145.4168,107.5602 149.5488,107.1994 152.8712,113.0317 C155.5252,107.0869 161.1028,106.1165 164.9948,111.7336 C169.3712,104.7787 174.6599,105.7767 178.1273,112.6 C180.8277,107.791 184.6998,108.2069 187.9077,112.0245 C192.3988,106.2358 198.4901,106.3624 201.5563,113.526 C205.1294,109.1052 208.0645,108.7369 211.1564,114.0029 C214.7386,107.1129 221.0263,107.6934 225.0644,113.5038 C228.388,108.1345 232.9116,108.0235 235.9244,113.8064 C240.126,108.0315 245.0173,108.324 248.4679,114.5888 C252.0142,110.4733 255.2965,109.9295 258.317,115.144 C265.642,118.0705 265.4493,123.6153 260.5615,128.5817 C267.485,132.8812 266.0019,138.1878 259.9782,141.9211 C266.917,145.9421 266.3096,151.5832 260.1006,155.7208 C267.15,159.6562 266.3639,165.3711 259.8095,169.0085 C265.9026,173.5047 267.5662,177.7429 260.8773,183.2009 C266.4835,188.1298 265.7047,194.0607 258.542,196.7964 C255.8395,200.9223 251.0113,201.6307 248.4337,196.6576 C245.4876,204.0254 239.6114,205.3218 234.8541,198.376 C231.048,203.7548 227.8086,203.1007 224.0734,198.3008 C220.4275,204.9478 215.8788,205.7233 211.239,199.2748 C207.4041,204.8363 202.7493,203.7451 200.2051,198.0137 C198.4149,204.1784 192.9396,204.401 189.1563,200.1224 C184.337,206.255 180.2059,206.4787 176.3326,199.2167 C172.4019,205.2515 168.5895,204.0259 164.9285,198.94 C161.8354,203.4425 156.2166,204.541 153.581,198.45 C149.3076,202.897 145.6274,203.2887 142.281,197.4331 C138.1013,202.3346 134.6528,202.57 130.8976,196.9729 C127.155,202.6483 121.8797,203.1197 117.6419,197.5571 C113.7178,202.7373 109.95,201.73 107.3145,196.3025 C104.2894,203.2624 97.9201,202.1787 94.1608,197.1052 C86.8564,193.0246 86.5178,188.5316 93.3536,183.6055 C85.8579,180.8177 83.8408,175.2413 90.6781,169.6965 C83.2045,166.0584 84.3505,161.6399 89.3959,156.7609 C82.4121,151.1782 82.5024,146.0841 90.6433,141.7591 C84.3574,136.5541 85.6485,130.7129 93.5775,128.7024 C86.3816,123.9308 88.445,117.0688 95.5389,114.2343 " fill="none" style="stroke:#181818;stroke-width:1.0;"/><text fill="#000000" font-family="sans-serif" font-size="14" font-weight="bold" lengthAdjust="spacing" textLength="117" x="117.5" y="132.5352">MonolithCluster</text></g><!--cluster MonolithDB--><g id="cluster_MonolithDB"><path d="M168,270.48 C168,260.48 306,260.48 306,260.48 C306,260.48 444,260.48 444,270.48 L444,486.46 C444,496.46 306,496.46 306,496.46 C306,496.46 168,496.46 168,486.46 L168,270.48 " fill="none" style="stroke:#181818;stroke-width:1.0;"/><path d="M168,270.48 C168,280.48 306,280.48 306,280.48 C306,280.48 444,280.48 444,270.48 " fill="none" style="stroke:#181818;stroke-width:1.0;"/><text fill="#000000" font-family="sans-serif" font-size="14" font-weight="bold" lengthAdjust="spacing" textLength="85" x="263.5" y="296.0152">MonolithDB</text></g><!--entity MonolithService--><g id="elem_MonolithService"><rect fill="#F1F1F1" height="46.4883" rx="2.5" ry="2.5" style="stroke:#181818;stroke-width:0.5;" width="149" x="101.5" y="141"/><rect fill="#F1F1F1" height="10" style="stroke:#181818;stroke-width:0.5;" width="15" x="230.5" y="146"/><rect fill="#F1F1F1" height="2" style="stroke:#181818;stroke-width:0.5;" width="4" x="228.5" y="148"/><rect fill="#F1F1F1" height="2" style="stroke:#181818;stroke-width:0.5;" width="4" x="228.5" y="152"/><text fill="#000000" font-family="sans-serif" font-size="14" lengthAdjust="spacing" textLength="109" x="116.5" y="174.5352">MonolithService</text></g><!--entity Users--><g id="elem_Users"><rect fill="#F1F1F1" height="46.4883" rx="2.5" ry="2.5" style="stroke:#181818;stroke-width:0.5;" width="78" x="211" y="318.48"/><rect fill="#F1F1F1" height="10" style="stroke:#181818;stroke-width:0.5;" width="15" x="269" y="323.48"/><rect fill="#F1F1F1" height="2" style="stroke:#181818;stroke-width:0.5;" width="4" x="267" y="325.48"/><rect fill="#F1F1F1" height="2" style="stroke:#181818;stroke-width:0.5;" width="4" x="267" y="329.48"/><text fill="#000000" font-family="sans-serif" font-size="14" lengthAdjust="spacing" textLength="38" x="226" y="352.0152">Users</text></g><!--entity Threads--><g id="elem_Threads"><rect fill="#F1F1F1" height="46.4883" rx="2.5" ry="2.5" style="stroke:#181818;stroke-width:0.5;" width="96" x="324" y="318.48"/><rect fill="#F1F1F1" height="10" style="stroke:#181818;stroke-width:0.5;" width="15" x="400" y="323.48"/><rect fill="#F1F1F1" height="2" style="stroke:#181818;stroke-width:0.5;" width="4" x="398" y="325.48"/><rect fill="#F1F1F1" height="2" style="stroke:#181818;stroke-width:0.5;" width="4" x="398" y="329.48"/><text fill="#000000" font-family="sans-serif" font-size="14" lengthAdjust="spacing" textLength="56" x="339" y="352.0152">Threads</text></g><!--entity Posts--><g id="elem_Posts"><rect fill="#F1F1F1" height="46.4883" rx="2.5" ry="2.5" style="stroke:#181818;stroke-width:0.5;" width="76" x="212" y="425.97"/><rect fill="#F1F1F1" height="10" style="stroke:#181818;stroke-width:0.5;" width="15" x="268" y="430.97"/><rect fill="#F1F1F1" height="2" style="stroke:#181818;stroke-width:0.5;" width="4" x="266" y="432.97"/><rect fill="#F1F1F1" height="2" style="stroke:#181818;stroke-width:0.5;" width="4" x="266" y="436.97"/><text fill="#000000" font-family="sans-serif" font-size="14" lengthAdjust="spacing" textLength="36" x="227" y="459.5052">Posts</text></g><!--entity Register--><g id="elem_Register"><ellipse cx="34" cy="14" fill="#F1F1F1" rx="8" ry="8" style="stroke:#181818;stroke-width:0.5;"/><text fill="#000000" font-family="sans-serif" font-size="14" lengthAdjust="spacing" textLength="56" x="6" y="44.5352">Register</text></g><!--entity Login--><g id="elem_Login"><ellipse cx="132" cy="14" fill="#F1F1F1" rx="8" ry="8" style="stroke:#181818;stroke-width:0.5;"/><text fill="#000000" font-family="sans-serif" font-size="14" lengthAdjust="spacing" textLength="38" x="113" y="44.5352">Login</text></g><!--entity Post--><g id="elem_Post"><ellipse cx="221" cy="14" fill="#F1F1F1" rx="8" ry="8" style="stroke:#181818;stroke-width:0.5;"/><text fill="#000000" font-family="sans-serif" font-size="14" lengthAdjust="spacing" textLength="29" x="206.5" y="44.5352">Post</text></g><!--entity ListThreads--><g id="elem_ListThreads"><ellipse cx="330" cy="14" fill="#F1F1F1" rx="8" ry="8" style="stroke:#181818;stroke-width:0.5;"/><text fill="#000000" font-family="sans-serif" font-size="14" lengthAdjust="spacing" textLength="79" x="290.5" y="44.5352">ListThreads</text></g><!--link Register to MonolithService--><g id="link_Register_MonolithService"><path d="M40.62,22.57 C52.64,36.24 78.91,65.87 102,90 C118.62,107.36 137.95,126.45 152.68,140.79 " fill="none" id="Register-MonolithService" style="stroke:#181818;stroke-width:1.0;"/><text fill="#000000" font-family="sans-serif" font-size="13" lengthAdjust="spacing" textLength="30" x="103" y="86.5684">REST</text></g><!--link Login to MonolithService--><g id="link_Login_MonolithService"><path d="M132.89,22.57 C134.62,36.23 138.88,65.86 146,90 C151.13,107.39 158.94,126.32 165.31,140.58 " fill="none" id="Login-MonolithService" style="stroke:#181818;stroke-width:1.0;"/><text fill="#000000" font-family="sans-serif" font-size="13" lengthAdjust="spacing" textLength="30" x="147" y="86.5684">REST</text></g><!--link Post to MonolithService--><g id="link_Post_MonolithService"><path d="M218.58,22.97 C211.92,44.92 193.11,106.86 182.87,140.62 " fill="none" id="Post-MonolithService" style="stroke:#181818;stroke-width:1.0;"/><text fill="#000000" font-family="sans-serif" font-size="13" lengthAdjust="spacing" textLength="30" x="204" y="86.5684">REST</text></g><!--link ListThreads to MonolithService--><g id="link_ListThreads_MonolithService"><path d="M321.72,22.97 C298.92,44.92 234.57,106.86 199.5,140.62 " fill="none" id="ListThreads-MonolithService" style="stroke:#181818;stroke-width:1.0;"/><text fill="#000000" font-family="sans-serif" font-size="13" lengthAdjust="spacing" textLength="30" x="268" y="86.5684">REST</text></g><!--link MonolithService to MonolithDB--><g id="link_MonolithService_MonolithDB"><path d="M176,187.82 C176,199.485 176,214.6688 176,230.933 C176,239.0651 176,247.4673 176,255.8349 C176,256.8808 176,257.9262 176,258.9705 C176,259.2315 176,259.4925 176,259.7535 " fill="none" id="MonolithService-to-MonolithDB" style="stroke:#181818;stroke-width:1.0;stroke-dasharray:7.0,7.0;"/><polygon fill="#181818" points="176,259.7535,180,250.7535,176,254.7535,172,250.7535,176,259.7535" style="stroke:#181818;stroke-width:1.0;"/><text fill="#000000" font-family="sans-serif" font-size="13" lengthAdjust="spacing" textLength="29" x="177" y="233.0484">uses</text></g><!--SRC=[Iyx9BqrHyCtFoy_9BCbmpYajBaajKgZcKW22Q9XmS6fHMMPoQYnNBHTNK6fw9bYDRaf-UPukfY8hXI3Nu10kd_pqp3n2YWBoYqi86WIqBYIZA3KnfPYGKgwKn9B4fCJYLBY7N9nWVWajJYqgZeMmeSP1UI1758FzXc6kWXx8GZqx9FEi54gBKukvk000]--></g></svg>