<?xml version="1.0" encoding="us-ascii" standalone="no"?><svg xmlns="http://www.w3.org/2000/svg" xmlns:xlink="http://www.w3.org/1999/xlink" contentStyleType="text/css" height="635px" preserveAspectRatio="none" style="width:480px;height:635px;background:#FFFFFF;" version="1.1" viewBox="0 0 480 635" width="480px" zoomAndPan="magnify"><defs/><g><!--cluster UserService--><g id="cluster_UserService"><rect fill="none" height="190.49" rx="2.5" ry="2.5" style="stroke:#181818;stroke-width:1.0;" width="196" x="7" y="121"/><rect fill="none" height="10" style="stroke:#181818;stroke-width:1.0;" width="15" x="183" y="126"/><rect fill="none" height="2" style="stroke:#181818;stroke-width:1.0;" width="4" x="181" y="128"/><rect fill="none" height="2" style="stroke:#181818;stroke-width:1.0;" width="4" x="181" y="132"/><text fill="#000000" font-family="sans-serif" font-size="14" font-weight="bold" lengthAdjust="spacing" textLength="82" x="64" y="147.5352">UserService</text></g><!--cluster PostService--><g id="cluster_PostService"><rect fill="none" height="140.49" rx="2.5" ry="2.5" style="stroke:#181818;stroke-width:1.0;" width="194" x="258" y="121"/><rect fill="none" height="10" style="stroke:#181818;stroke-width:1.0;" width="15" x="432" y="126"/><rect fill="none" height="2" style="stroke:#181818;stroke-width:1.0;" width="4" x="430" y="128"/><rect fill="none" height="2" style="stroke:#181818;stroke-width:1.0;" width="4" x="430" y="132"/><text fill="#000000" font-family="sans-serif" font-size="14" font-weight="bold" lengthAdjust="spacing" textLength="82" x="314" y="147.5352">PostService</text></g><!--cluster ThreadService--><g id="cluster_ThreadService"><rect fill="none" height="128.49" rx="2.5" ry="2.5" style="stroke:#181818;stroke-width:1.0;" width="223" x="48" y="501.49"/><rect fill="none" height="10" style="stroke:#181818;stroke-width:1.0;" width="15" x="251" y="506.49"/><rect fill="none" height="2" style="stroke:#181818;stroke-width:1.0;" width="4" x="249" y="508.49"/><rect fill="none" height="2" style="stroke:#181818;stroke-width:1.0;" width="4" x="249" y="512.49"/><text fill="#000000" font-family="sans-serif" font-size="14" font-weight="bold" lengthAdjust="spacing" textLength="100" x="109.5" y="528.0252">ThreadService</text></g><!--entity Users--><g id="elem_Users"><rect fill="#F1F1F1" height="46.4883" rx="2.5" ry="2.5" style="stroke:#181818;stroke-width:0.5;" width="78" x="23" y="199"/><rect fill="#F1F1F1" height="10" style="stroke:#181818;stroke-width:0.5;" width="15" x="81" y="204"/><rect fill="#F1F1F1" height="2" style="stroke:#181818;stroke-width:0.5;" width="4" x="79" y="206"/><rect fill="#F1F1F1" height="2" style="stroke:#181818;stroke-width:0.5;" width="4" x="79" y="210"/><text fill="#000000" font-family="sans-serif" font-size="14" lengthAdjust="spacing" textLength="38" x="38" y="232.5352">Users</text></g><text fill="#000000" font-family="sans-serif" font-size="14" lengthAdjust="spacing" textLength="37" x="166.5" y="100.0469">users</text><rect fill="#F1F1F1" height="12" style="stroke:#181818;stroke-width:1.5;" width="12" x="179" y="115"/><text fill="#000000" font-family="sans-serif" font-size="14" lengthAdjust="spacing" textLength="9" x="180.5" y="331.0252">p</text><rect fill="#F1F1F1" height="12" style="stroke:#181818;stroke-width:1.5;" width="12" x="179" y="305.49"/><!--entity Posts--><g id="elem_Posts"><rect fill="#F1F1F1" height="46.4883" rx="2.5" ry="2.5" style="stroke:#181818;stroke-width:0.5;" width="76" x="274" y="199"/><rect fill="#F1F1F1" height="10" style="stroke:#181818;stroke-width:0.5;" width="15" x="330" y="204"/><rect fill="#F1F1F1" height="2" style="stroke:#181818;stroke-width:0.5;" width="4" x="328" y="206"/><rect fill="#F1F1F1" height="2" style="stroke:#181818;stroke-width:0.5;" width="4" x="328" y="210"/><text fill="#000000" font-family="sans-serif" font-size="14" lengthAdjust="spacing" textLength="36" x="289" y="232.5352">Posts</text></g><text fill="#000000" font-family="sans-serif" font-size="14" lengthAdjust="spacing" textLength="52" x="408" y="100.0469">threads</text><rect fill="#F1F1F1" height="12" style="stroke:#181818;stroke-width:1.5;" width="12" x="428" y="115"/><!--entity Threads--><g id="elem_Threads"><rect fill="#F1F1F1" height="46.4883" rx="2.5" ry="2.5" style="stroke:#181818;stroke-width:0.5;" width="96" x="64" y="567.49"/><rect fill="#F1F1F1" height="10" style="stroke:#181818;stroke-width:0.5;" width="15" x="140" y="572.49"/><rect fill="#F1F1F1" height="2" style="stroke:#181818;stroke-width:0.5;" width="4" x="138" y="574.49"/><rect fill="#F1F1F1" height="2" style="stroke:#181818;stroke-width:0.5;" width="4" x="138" y="578.49"/><text fill="#000000" font-family="sans-serif" font-size="14" lengthAdjust="spacing" textLength="56" x="79" y="601.0252">Threads</text></g><text fill="#000000" font-family="sans-serif" font-size="14" lengthAdjust="spacing" textLength="37" x="234.5" y="480.5369">posts</text><rect fill="#F1F1F1" height="12" style="stroke:#181818;stroke-width:1.5;" width="12" x="247" y="495.49"/><!--entity Register--><g id="elem_Register"><ellipse cx="136" cy="14" fill="#F1F1F1" rx="8" ry="8" style="stroke:#181818;stroke-width:0.5;"/><text fill="#000000" font-family="sans-serif" font-size="14" lengthAdjust="spacing" textLength="56" x="108" y="44.5352">Register</text></g><!--entity Login--><g id="elem_Login"><ellipse cx="234" cy="14" fill="#F1F1F1" rx="8" ry="8" style="stroke:#181818;stroke-width:0.5;"/><text fill="#000000" font-family="sans-serif" font-size="14" lengthAdjust="spacing" textLength="38" x="215" y="44.5352">Login</text></g><!--entity Post--><g id="elem_Post"><ellipse cx="294" cy="406.49" fill="#F1F1F1" rx="8" ry="8" style="stroke:#181818;stroke-width:0.5;"/><text fill="#000000" font-family="sans-serif" font-size="14" lengthAdjust="spacing" textLength="29" x="279.5" y="437.0252">Post</text></g><!--entity DeletePosts--><g id="elem_DeletePosts"><ellipse cx="185" cy="406.49" fill="#F1F1F1" rx="8" ry="8" style="stroke:#181818;stroke-width:0.5;"/><text fill="#000000" font-family="sans-serif" font-size="14" lengthAdjust="spacing" textLength="79" x="145.5" y="437.0252">DeletePosts</text></g><!--entity ListThreads--><g id="elem_ListThreads"><ellipse cx="434" cy="14" fill="#F1F1F1" rx="8" ry="8" style="stroke:#181818;stroke-width:0.5;"/><text fill="#000000" font-family="sans-serif" font-size="14" lengthAdjust="spacing" textLength="79" x="394.5" y="44.5352">ListThreads</text></g><!--link Register to users--><g id="link_Register_users"><path d="M139.68,22.9 C149.21,43.31 174.48,97.45 182.51,114.67 " fill="none" id="Register-users" style="stroke:#181818;stroke-width:1.0;"/></g><!--link Login to users--><g id="link_Login_users"><path d="M230.32,22.9 C220.79,43.31 195.52,97.45 187.49,114.67 " fill="none" id="Login-users" style="stroke:#181818;stroke-width:1.0;"/></g><!--link Post to posts--><g id="link_Post_posts"><path d="M290.5,415.42 C282.37,433.87 262.34,479.3 255.41,495.03 " fill="none" id="Post-posts" style="stroke:#181818;stroke-width:1.0;"/></g><!--link DeletePosts to posts--><g id="link_DeletePosts_posts"><path d="M190.8,415.42 C204.29,433.87 237.5,479.3 249,495.03 " fill="none" id="DeletePosts-posts" style="stroke:#181818;stroke-width:1.0;"/></g><!--link ListThreads to threads--><g id="link_ListThreads_threads"><path d="M434,22.9 C434,43.5 434,98.47 434,115.14 " fill="none" id="ListThreads-threads" style="stroke:#181818;stroke-width:1.0;"/></g><!--link p to DeletePosts--><g id="link_p_DeletePosts"><path d="M185,317.76 C185,331.83 185,370.64 185,391.61 " fill="none" id="p-to-DeletePosts" style="stroke:#181818;stroke-width:1.0;"/><polygon fill="#181818" points="185,396.5,189,387.5,185,391.5,181,387.5,185,396.5" style="stroke:#181818;stroke-width:1.0;"/></g><!--SRC=[ROun3i8m34Ltdy8Nw1MO63kWKWw0Kgj4WZXoN1WGToTD4qYaZddVx-SRVdXsv1GlWUHCyhI6y0s8fab299v5hSEbUlAYwE43yBy-ST3zdZMfUlGcT9r2Quy9xljZ5duDFXL6Vw3P1YN1RkANw_B4dkTurA1rGY6RVQGxAQLfRT37nlnZ2SfYy9aSiD81lW00]--></g></svg>