<?xml version="1.0" encoding="us-ascii" standalone="no"?><svg xmlns="http://www.w3.org/2000/svg" xmlns:xlink="http://www.w3.org/1999/xlink" contentStyleType="text/css" height="373px" preserveAspectRatio="none" style="width:521px;height:373px;background:#FFFFFF;" version="1.1" viewBox="0 0 521 373" width="521px" zoomAndPan="magnify"><defs/><g><!--cluster MonolithService--><g id="cluster_MonolithService"><rect fill="none" height="246.98" rx="2.5" ry="2.5" style="stroke:#181818;stroke-width:1.0;" width="391" x="124" y="121"/><rect fill="none" height="10" style="stroke:#181818;stroke-width:1.0;" width="15" x="495" y="126"/><rect fill="none" height="2" style="stroke:#181818;stroke-width:1.0;" width="4" x="493" y="128"/><rect fill="none" height="2" style="stroke:#181818;stroke-width:1.0;" width="4" x="493" y="132"/><text fill="#000000" font-family="sans-serif" font-size="14" font-weight="bold" lengthAdjust="spacing" textLength="115" x="262" y="147.5352">MonolithService</text></g><!--entity Users--><g id="elem_Users"><rect fill="#F1F1F1" height="46.4883" rx="2.5" ry="2.5" style="stroke:#181818;stroke-width:0.5;" width="78" x="310" y="199"/><rect fill="#F1F1F1" height="10" style="stroke:#181818;stroke-width:0.5;" width="15" x="368" y="204"/><rect fill="#F1F1F1" height="2" style="stroke:#181818;stroke-width:0.5;" width="4" x="366" y="206"/><rect fill="#F1F1F1" height="2" style="stroke:#181818;stroke-width:0.5;" width="4" x="366" y="210"/><text fill="#000000" font-family="sans-serif" font-size="14" lengthAdjust="spacing" textLength="38" x="325" y="232.5352">Users</text></g><!--entity Posts--><g id="elem_Posts"><rect fill="#F1F1F1" height="46.4883" rx="2.5" ry="2.5" style="stroke:#181818;stroke-width:0.5;" width="76" x="423" y="199"/><rect fill="#F1F1F1" height="10" style="stroke:#181818;stroke-width:0.5;" width="15" x="479" y="204"/><rect fill="#F1F1F1" height="2" style="stroke:#181818;stroke-width:0.5;" width="4" x="477" y="206"/><rect fill="#F1F1F1" height="2" style="stroke:#181818;stroke-width:0.5;" width="4" x="477" y="210"/><text fill="#000000" font-family="sans-serif" font-size="14" lengthAdjust="spacing" textLength="36" x="438" y="232.5352">Posts</text></g><!--entity Threads--><g id="elem_Threads"><rect fill="#F1F1F1" height="46.4883" rx="2.5" ry="2.5" style="stroke:#181818;stroke-width:0.5;" width="96" x="301" y="305.49"/><rect fill="#F1F1F1" height="10" style="stroke:#181818;stroke-width:0.5;" width="15" x="377" y="310.49"/><rect fill="#F1F1F1" height="2" style="stroke:#181818;stroke-width:0.5;" width="4" x="375" y="312.49"/><rect fill="#F1F1F1" height="2" style="stroke:#181818;stroke-width:0.5;" width="4" x="375" y="316.49"/><text fill="#000000" font-family="sans-serif" font-size="14" lengthAdjust="spacing" textLength="56" x="316" y="339.0252">Threads</text></g><text fill="#000000" font-family="sans-serif" font-size="14" lengthAdjust="spacing" textLength="37" x="123.5" y="100.0469">users</text><rect fill="#F1F1F1" height="12" style="stroke:#181818;stroke-width:1.5;" width="12" x="136" y="115"/><text fill="#000000" font-family="sans-serif" font-size="14" lengthAdjust="spacing" textLength="37" x="191.5" y="100.0469">posts</text><rect fill="#F1F1F1" height="12" style="stroke:#181818;stroke-width:1.5;" width="12" x="204" y="115"/><text fill="#000000" font-family="sans-serif" font-size="14" lengthAdjust="spacing" textLength="52" x="252" y="100.0469">threads</text><rect fill="#F1F1F1" height="12" style="stroke:#181818;stroke-width:1.5;" width="12" x="272" y="115"/><!--entity Register--><g id="elem_Register"><ellipse cx="34" cy="14" fill="#F1F1F1" rx="8" ry="8" style="stroke:#181818;stroke-width:0.5;"/><text fill="#000000" font-family="sans-serif" font-size="14" lengthAdjust="spacing" textLength="56" x="6" y="44.5352">Register</text></g><!--entity Login--><g id="elem_Login"><ellipse cx="132" cy="14" fill="#F1F1F1" rx="8" ry="8" style="stroke:#181818;stroke-width:0.5;"/><text fill="#000000" font-family="sans-serif" font-size="14" lengthAdjust="spacing" textLength="38" x="113" y="44.5352">Login</text></g><!--entity Post--><g id="elem_Post"><ellipse cx="221" cy="14" fill="#F1F1F1" rx="8" ry="8" style="stroke:#181818;stroke-width:0.5;"/><text fill="#000000" font-family="sans-serif" font-size="14" lengthAdjust="spacing" textLength="29" x="206.5" y="44.5352">Post</text></g><!--entity ListThreads--><g id="elem_ListThreads"><ellipse cx="330" cy="14" fill="#F1F1F1" rx="8" ry="8" style="stroke:#181818;stroke-width:0.5;"/><text fill="#000000" font-family="sans-serif" font-size="14" lengthAdjust="spacing" textLength="79" x="290.5" y="44.5352">ListThreads</text></g><!--link Register to users--><g id="link_Register_users"><path d="M42.12,22.9 C63.11,43.31 118.8,97.45 136.51,114.67 " fill="none" id="Register-users" style="stroke:#181818;stroke-width:1.0;"/></g><!--link Login to users--><g id="link_Login_users"><path d="M132.75,22.9 C134.7,43.31 139.85,97.45 141.49,114.67 " fill="none" id="Login-users" style="stroke:#181818;stroke-width:1.0;"/></g><!--link Post to posts--><g id="link_Post_posts"><path d="M220.17,22.9 C218.03,43.31 212.36,97.45 210.56,114.67 " fill="none" id="Post-posts" style="stroke:#181818;stroke-width:1.0;"/></g><!--link ListThreads to threads--><g id="link_ListThreads_threads"><path d="M326.09,22.9 C315.89,43.5 288.67,98.47 280.41,115.14 " fill="none" id="ListThreads-threads" style="stroke:#181818;stroke-width:1.0;"/></g><!--SRC=[LOrR2eGm34N_kufim9qe33uM83LeGPEInl53PkygfWFzlEU-F6-H2KcXOU8rwDAXV8D7E1s0_xj3Gaa5-N3IalIBu3WzBB9e8DYjP39QmwHQ_ETSYtD8YWBLn0TLLgnvlcC5UaupUUVgksZ7sSZ3xW80]--></g></svg>