<?xml version="1.0" encoding="us-ascii" standalone="no"?><svg xmlns="http://www.w3.org/2000/svg" xmlns:xlink="http://www.w3.org/1999/xlink" contentStyleType="text/css" height="755px" preserveAspectRatio="none" style="width:535px;height:755px;background:#FFFFFF;" version="1.1" viewBox="0 0 535 755" width="535px" zoomAndPan="magnify"><defs/><g><!--cluster MonolithCluster--><g id="cluster_MonolithCluster"><path d="M82.4872,115.5258 C87.9242,104.5716 98.8569,104.4581 105.6217,114.0292 C112.0258,103.5016 123.9492,104.684 129.8758,114.5958 C137.8574,105.7199 145.5589,105.0607 152.4112,115.8873 C159.7789,101.6235 169.388,103.0133 177.9663,114.6949 C186.2869,101.8377 197.73,102.896 204.6618,116.1167 C211.9383,105.5174 218.5755,106.0384 225.7319,116.2384 C231.8914,102.9728 244.0763,103.6328 252.5023,113.6303 C261.0552,103.9709 267.9757,104.5254 274.9124,115.3946 C283.9967,103.0529 293.1392,103.1948 301.1765,116.468 C308.9595,102.997 318.196,102.3427 326.5713,115.9118 C333.2719,106.0226 342.3714,103.6516 349.9807,114.9058 C360.2744,104.0913 375.0619,103.4508 379.5,121 C381.315,121.9912 381.1754,123.0609 379.8686,124.3914 C388.8486,128.8799 389.1959,138.207 381.3532,143.9711 C391.1841,151.0018 393.6849,159.0296 382.1318,166.79 C392.6859,174.5233 391.8824,182.7739 381.6189,190.048 C392.4263,196.7056 391.4402,203.0537 382.2902,210.3705 C393.5521,214.9744 396.0757,224.6554 385.0691,232.1063 C396.4823,239.137 398.1285,251.7071 384.3428,258.0318 C395.6338,262.93 396.202,272.3443 386.9625,279.7221 C396.4456,287.3866 392.5777,296.1897 382.8872,300.0011 C392.7658,306.4391 392.9362,317.2056 382.4724,323.2811 C392.8909,329.2409 392.6338,335.1721 383.948,342.5917 C397.4254,349.8382 398.203,359.8528 384.7678,367.9687 C394.0456,374.6304 395.75,383.4834 384.2077,389.6062 C393.9022,397.4558 392.6736,405.4825 381.1786,410.218 C391.6636,423.9405 386.6089,431.9384 372.5,437.97 C374.0175,437.2712 375.3062,437.9475 375.0839,439.76 C367.3718,449.5722 358.3214,451.5078 351.7602,438.5797 C345.3781,449.5711 336.1872,450.419 327.5912,441.2313 C319.7296,453.3 309.7013,456.4766 300.693,442.4115 C294.4277,454.2699 282.062,453.9727 275.1742,443.1108 C268.2806,454.451 257.5244,450.738 253.0624,440.6067 C244.2696,450.5185 236.9382,450.0436 228.7453,439.88 C223.0793,450.725 211.4703,450.7077 205.0909,440.6888 C196.5263,454.6253 187.0631,453.2083 178.1709,441.0265 C170.7091,452.9428 160.9067,454.3724 153.6062,440.8706 C145.4954,451.7016 137.4698,451.0792 129.5956,440.604 C120.1099,451.0721 111.6815,454.4489 103.0081,439.7458 C91.2843,450.1183 75.4107,448.6493 71.5,430.97 C74.2239,431.4805 74.3228,433.0388 73.2212,435.1315 C60.8622,428.6257 59.8636,421.7077 70.9014,412.7742 C61.4191,404.5237 60.4032,396.1621 72.5967,389.4898 C63.2965,382.8685 63.0151,373.6898 72.2673,366.7992 C60.8041,360.5235 59.797,349.3688 71.9507,342.7818 C59.924,336.3689 59.9514,327.1269 71.7627,320.5128 C62.0859,315.4321 60.5753,307.3877 69.4678,300.2083 C57.48,291.6984 57.8675,284.0093 70.4807,276.5528 C59.3345,271.697 60.1123,263.4646 68.6168,256.7584 C59.9281,249.0539 61.7634,240.7011 71.5599,235.5634 C57.3224,229.2747 57.5108,217.9822 70.2674,210.312 C59.6171,203.8863 61.3962,194.033 71.9463,189.3013 C61.0109,183.2058 61.0538,175.5125 71.1823,168.6382 C61.8135,159.5608 61.1219,151.456 73.1286,144.0722 C59.4588,131.129 62.7459,121.6876 78.5,114 C80.3601,112.4894 82.0003,113.4479 82.4872,115.5258 " fill="none" style="stroke:#181818;stroke-width:1.0;"/><text fill="#000000" font-family="sans-serif" font-size="14" font-weight="bold" lengthAdjust="spacing" textLength="117" x="167" y="132.5352">MonolithCluster</text></g><!--cluster MonolithDB--><g id="cluster_MonolithDB"><path d="M242.5,512.97 C242.5,502.97 380.5,502.97 380.5,502.97 C380.5,502.97 518.5,502.97 518.5,512.97 L518.5,728.95 C518.5,738.95 380.5,738.95 380.5,738.95 C380.5,738.95 242.5,738.95 242.5,728.95 L242.5,512.97 " fill="none" style="stroke:#181818;stroke-width:1.0;"/><path d="M242.5,512.97 C242.5,522.97 380.5,522.97 380.5,522.97 C380.5,522.97 518.5,522.97 518.5,512.97 " fill="none" style="stroke:#181818;stroke-width:1.0;"/><text fill="#000000" font-family="sans-serif" font-size="14" font-weight="bold" lengthAdjust="spacing" textLength="85" x="338" y="538.5052">MonolithDB</text></g><!--entity UserService--><g id="elem_UserService"><rect fill="#F1F1F1" height="46.4883" rx="2.5" ry="2.5" style="stroke:#181818;stroke-width:0.5;" width="119" x="80" y="141"/><rect fill="#F1F1F1" height="10" style="stroke:#181818;stroke-width:0.5;" width="15" x="179" y="146"/><rect fill="#F1F1F1" height="2" style="stroke:#181818;stroke-width:0.5;" width="4" x="177" y="148"/><rect fill="#F1F1F1" height="2" style="stroke:#181818;stroke-width:0.5;" width="4" x="177" y="152"/><text fill="#000000" font-family="sans-serif" font-size="14" lengthAdjust="spacing" textLength="79" x="95" y="174.5352">UserService</text></g><!--entity ThreadService--><g id="elem_ThreadService"><rect fill="#F1F1F1" height="46.4883" rx="2.5" ry="2.5" style="stroke:#181818;stroke-width:0.5;" width="137" x="234" y="141"/><rect fill="#F1F1F1" height="10" style="stroke:#181818;stroke-width:0.5;" width="15" x="351" y="146"/><rect fill="#F1F1F1" height="2" style="stroke:#181818;stroke-width:0.5;" width="4" x="349" y="148"/><rect fill="#F1F1F1" height="2" style="stroke:#181818;stroke-width:0.5;" width="4" x="349" y="152"/><text fill="#000000" font-family="sans-serif" font-size="14" lengthAdjust="spacing" textLength="97" x="249" y="174.5352">ThreadService</text></g><!--entity PostService--><g id="elem_PostService"><rect fill="#F1F1F1" height="46.4883" rx="2.5" ry="2.5" style="stroke:#181818;stroke-width:0.5;" width="117" x="80" y="383.49"/><rect fill="#F1F1F1" height="10" style="stroke:#181818;stroke-width:0.5;" width="15" x="177" y="388.49"/><rect fill="#F1F1F1" height="2" style="stroke:#181818;stroke-width:0.5;" width="4" x="175" y="390.49"/><rect fill="#F1F1F1" height="2" style="stroke:#181818;stroke-width:0.5;" width="4" x="175" y="394.49"/><text fill="#000000" font-family="sans-serif" font-size="14" lengthAdjust="spacing" textLength="77" x="95" y="417.0252">PostService</text></g><!--entity DeletePosts--><g id="elem_DeletePosts"><ellipse cx="138.5" cy="277.49" fill="#F1F1F1" rx="8" ry="8" style="stroke:#181818;stroke-width:0.5;"/><text fill="#000000" font-family="sans-serif" font-size="14" lengthAdjust="spacing" textLength="79" x="99" y="308.0252">DeletePosts</text></g><!--entity Users--><g id="elem_Users"><rect fill="#F1F1F1" height="46.4883" rx="2.5" ry="2.5" style="stroke:#181818;stroke-width:0.5;" width="78" x="285.5" y="560.97"/><rect fill="#F1F1F1" height="10" style="stroke:#181818;stroke-width:0.5;" width="15" x="343.5" y="565.97"/><rect fill="#F1F1F1" height="2" style="stroke:#181818;stroke-width:0.5;" width="4" x="341.5" y="567.97"/><rect fill="#F1F1F1" height="2" style="stroke:#181818;stroke-width:0.5;" width="4" x="341.5" y="571.97"/><text fill="#000000" font-family="sans-serif" font-size="14" lengthAdjust="spacing" textLength="38" x="300.5" y="594.5052">Users</text></g><!--entity Threads--><g id="elem_Threads"><rect fill="#F1F1F1" height="46.4883" rx="2.5" ry="2.5" style="stroke:#181818;stroke-width:0.5;" width="96" x="398.5" y="560.97"/><rect fill="#F1F1F1" height="10" style="stroke:#181818;stroke-width:0.5;" width="15" x="474.5" y="565.97"/><rect fill="#F1F1F1" height="2" style="stroke:#181818;stroke-width:0.5;" width="4" x="472.5" y="567.97"/><rect fill="#F1F1F1" height="2" style="stroke:#181818;stroke-width:0.5;" width="4" x="472.5" y="571.97"/><text fill="#000000" font-family="sans-serif" font-size="14" lengthAdjust="spacing" textLength="56" x="413.5" y="594.5052">Threads</text></g><!--entity Posts--><g id="elem_Posts"><rect fill="#F1F1F1" height="46.4883" rx="2.5" ry="2.5" style="stroke:#181818;stroke-width:0.5;" width="76" x="286.5" y="668.46"/><rect fill="#F1F1F1" height="10" style="stroke:#181818;stroke-width:0.5;" width="15" x="342.5" y="673.46"/><rect fill="#F1F1F1" height="2" style="stroke:#181818;stroke-width:0.5;" width="4" x="340.5" y="675.46"/><rect fill="#F1F1F1" height="2" style="stroke:#181818;stroke-width:0.5;" width="4" x="340.5" y="679.46"/><text fill="#000000" font-family="sans-serif" font-size="14" lengthAdjust="spacing" textLength="36" x="301.5" y="701.9952">Posts</text></g><!--entity Register--><g id="elem_Register"><ellipse cx="68.5" cy="14" fill="#F1F1F1" rx="8" ry="8" style="stroke:#181818;stroke-width:0.5;"/><text fill="#000000" font-family="sans-serif" font-size="14" lengthAdjust="spacing" textLength="56" x="40.5" y="44.5352">Register</text></g><!--entity Login--><g id="elem_Login"><ellipse cx="166.5" cy="14" fill="#F1F1F1" rx="8" ry="8" style="stroke:#181818;stroke-width:0.5;"/><text fill="#000000" font-family="sans-serif" font-size="14" lengthAdjust="spacing" textLength="38" x="147.5" y="44.5352">Login</text></g><!--entity Post--><g id="elem_Post"><ellipse cx="20.5" cy="277.49" fill="#F1F1F1" rx="8" ry="8" style="stroke:#181818;stroke-width:0.5;"/><text fill="#000000" font-family="sans-serif" font-size="14" lengthAdjust="spacing" textLength="29" x="6" y="308.0252">Post</text></g><!--entity ListThreads--><g id="elem_ListThreads"><ellipse cx="302.5" cy="14" fill="#F1F1F1" rx="8" ry="8" style="stroke:#181818;stroke-width:0.5;"/><text fill="#000000" font-family="sans-serif" font-size="14" lengthAdjust="spacing" textLength="79" x="263" y="44.5352">ListThreads</text></g><!--link UserService to DeletePosts--><g id="link_UserService_DeletePosts"><path d="M139.3,187.75 C139.1,210.23 138.79,244.04 138.62,262.77 " fill="none" id="UserService-to-DeletePosts" style="stroke:#181818;stroke-width:1.0;"/><polygon fill="#181818" points="138.57,267.5,142.647,258.5346,138.6129,262.5002,134.6473,258.466,138.57,267.5" style="stroke:#181818;stroke-width:1.0;"/></g><!--link DeletePosts to PostService--><g id="link_DeletePosts_PostService"><path d="M138.5,286.44 C138.5,305.49 138.5,354.24 138.5,383.18 " fill="none" id="DeletePosts-PostService" style="stroke:#181818;stroke-width:1.0;"/></g><!--link Register to UserService--><g id="link_Register_UserService"><path d="M72.32,22.97 C82.83,44.92 112.5,106.86 128.67,140.62 " fill="none" id="Register-UserService" style="stroke:#181818;stroke-width:1.0;"/><text fill="#000000" font-family="sans-serif" font-size="13" lengthAdjust="spacing" textLength="30" x="105.5" y="86.5684">REST</text></g><!--link Login to UserService--><g id="link_Login_UserService"><path d="M165.05,22.97 C161.05,44.92 149.77,106.86 143.62,140.62 " fill="none" id="Login-UserService" style="stroke:#181818;stroke-width:1.0;"/><text fill="#000000" font-family="sans-serif" font-size="13" lengthAdjust="spacing" textLength="30" x="156.5" y="86.5684">REST</text></g><!--link Post to PostService--><g id="link_Post_PostService"><path d="M27.88,286.44 C45.54,305.49 90.75,354.24 117.59,383.18 " fill="none" id="Post-PostService" style="stroke:#181818;stroke-width:1.0;"/><text fill="#000000" font-family="sans-serif" font-size="13" lengthAdjust="spacing" textLength="30" x="88.5" y="350.0584">REST</text></g><!--link ListThreads to ThreadService--><g id="link_ListThreads_ThreadService"><path d="M302.5,22.97 C302.5,44.92 302.5,106.86 302.5,140.62 " fill="none" id="ListThreads-ThreadService" style="stroke:#181818;stroke-width:1.0;"/><text fill="#000000" font-family="sans-serif" font-size="13" lengthAdjust="spacing" textLength="30" x="303.5" y="86.5684">REST</text></g><!--link UserService to MonolithDB--><g id="link_UserService_MonolithDB"><path d="M162.18,187.9 C176.44,203.56 193.9,225.63 203.5,248.49 C232.12,316.665 243.9525,398.8175 248.59,464.6725 C249.1697,472.9044 249.637,480.8816 250.0105,488.545 C250.1973,492.3768 250.3607,496.1301 250.503,499.7975 C250.5385,500.7144 250.5728,501.6259 250.6058,502.5319 " fill="none" id="UserService-to-MonolithDB" style="stroke:#181818;stroke-width:1.0;stroke-dasharray:7.0,7.0;"/><polygon fill="#181818" points="250.6058,502.5319,254.2758,493.3923,250.4239,497.5352,246.2811,493.6833,250.6058,502.5319" style="stroke:#181818;stroke-width:1.0;"/><text fill="#000000" font-family="sans-serif" font-size="13" lengthAdjust="spacing" textLength="29" x="234.5" y="350.0584">uses</text></g><!--link ThreadService to MonolithDB--><g id="link_ThreadService_MonolithDB"><path d="M305.27,187.66 C310.86,240.75 319.57,377.32 276.5,478.97 C274.66,483.32 271.58,482.73 269.5,486.97 C267.1713,491.7088 265.1278,496.7113 263.3347,501.8441 C263.2227,502.1649 263.1116,502.4862 263.0015,502.808 " fill="none" id="ThreadService-to-MonolithDB" style="stroke:#181818;stroke-width:1.0;stroke-dasharray:7.0,7.0;"/><polygon fill="#181818" points="263.0015,502.808,269.7,495.5879,264.6203,498.0774,262.1309,492.9977,263.0015,502.808" style="stroke:#181818;stroke-width:1.0;"/><text fill="#000000" font-family="sans-serif" font-size="13" lengthAdjust="spacing" textLength="29" x="308.5" y="350.0584">uses</text></g><!--link PostService to MonolithDB--><g id="link_PostService_MonolithDB"><path d="M152.91,430.31 C167.8,453.64 191.6725,491.045 212.0788,523.0188 C222.2819,539.0056 231.6184,553.6347 238.5323,564.4677 C239.3966,565.8218 240.223,567.1166 241.0085,568.3473 C241.4012,568.9627 241.7837,569.562 242.1556,570.1448 C242.2486,570.2904 242.3409,570.4351 242.4326,570.5787 " fill="none" id="PostService-to-MonolithDB" style="stroke:#181818;stroke-width:1.0;stroke-dasharray:7.0,7.0;"/><polygon fill="#181818" points="242.4326,570.5787,240.9624,560.8402,239.7426,566.364,234.2188,565.1442,242.4326,570.5787" style="stroke:#181818;stroke-width:1.0;"/><text fill="#000000" font-family="sans-serif" font-size="13" lengthAdjust="spacing" textLength="29" x="182.5" y="475.5384">uses</text></g><!--SRC=[VP0z3i8m38Ltdy8Ne0Veq07A1X9gouGOGcEraQ96YbCO47Udlv1Kq6onFh_dzqfjMeb7qnYjNBtJBJko-0JitkNCP7EoTrNITPmKjIKXmzd9i0id_Xvkf7aqcmHJqkIeXtcWlF_4BAHU091HfOQBPiANZZ7RvmKSJAMQDQ1N_Man2tGMOx3l9M7G2GGfdBW9fazXwTRlYeEMsEk7XpXXCL5l5IMULemj4yF2V0Nqm_p7u0q0]--></g></svg>